<svg xmlns="http://www.w3.org/2000/svg" viewBox="0 0 64 64" width="64" height="64" fill="none">
  <!-- I am the Spotify mark: a listener with headphones and streaming arcs. -->
  <rect width="64" height="64" rx="16" fill="#F3E7D4"/>
  <g stroke="#171513" stroke-width="2.2" stroke-linecap="round" stroke-linejoin="round">
    <path d="M18 48C20 40 26 35 32 35C38 35 44 40 46 48"/>
    <path d="M21 28C21 21 26 16 32 16C38 16 43 21 43 28"/>
    <path d="M19 28V32"/>
    <path d="M45 28V32"/>
    <path d="M25 25C29 23 35 23 39 25"/>
    <path d="M25 30C29 28.5 34 28.5 38 30"/>
    <path d="M26 35C29 34 33 34 36 35.5"/>
  </g>
  <g fill="#171513">
    <circle cx="32" cy="27" r="8.5"/>
  </g>
</svg>
