<svg width="200" height="200" viewBox="0 0 200 200" fill="none" xmlns="http://www.w3.org/2000/svg">
  <!-- I am concept 05: the bridge mark reduced into a calmer, more premium silhouette. -->
  <rect width="200" height="200" rx="40" fill="#F3E7D4"/>

  <g stroke="#171513" stroke-width="3" stroke-linecap="round" stroke-linejoin="round">
    <path d="M43 145C52 137 61 134 72 135"/>
    <path d="M128 135C139 134 148 137 157 145"/>
    <path d="M74 111C83 118 92 125 100 135C108 125 117 118 126 111"/>
    <path d="M80 106C86 101 93 98 100 98C107 98 114 101 120 106"/>
    <path d="M73 74C77 61 87 53 100 53C113 53 123 61 127 74"/>
    <path d="M100 53V32L129 24V68"/>
    <circle cx="97" cy="56" r="5.2"/>
    <circle cx="129" cy="68" r="5.2"/>
    <path d="M63 118L83 111"/>
    <path d="M137 118L117 111"/>
    <path d="M61 118C58 126 58 133 61 141"/>
    <path d="M139 118C142 126 142 133 139 141"/>
    <path d="M68 147L71 133"/>
    <path d="M132 133L129 147"/>
  </g>

  <g fill="#171513">
    <circle cx="75" cy="84" r="10"/>
    <circle cx="125" cy="84" r="10"/>
    <path d="M62 110C67 103 82 103 87 110V123H62V110Z"/>
    <path d="M113 110C118 103 133 103 138 110V123H113V110Z"/>
  </g>

  <g stroke="#171513" stroke-width="2.35" stroke-linecap="round" stroke-linejoin="round">
    <path d="M71 72C74 66 79 63 84 63C89 63 93 65 96 68"/>
    <path d="M104 68C107 65 111 63 116 63C121 63 126 66 129 72"/>
    <path d="M71 92C75 95 80 95 84 92"/>
    <path d="M116 92C120 95 125 95 129 92"/>
  </g>

  <g stroke="#171513" stroke-width="2" stroke-linecap="round" opacity="0.45">
    <path d="M48 60C53 56 60 55 66 59"/>
    <path d="M134 59C140 55 147 56 152 60"/>
    <path d="M86 20C91 16 109 16 114 20"/>
  </g>
</svg>
