<svg width="200" height="200" viewBox="0 0 200 200" fill="none" xmlns="http://www.w3.org/2000/svg">
  <!-- I am concept 04: one seated listener with music blooming upward like a small garden. -->
  <rect width="200" height="200" rx="40" fill="#F3E7D4"/>

  <g stroke="#1E1A17" stroke-width="3" stroke-linecap="round" stroke-linejoin="round">
    <path d="M48 149H152"/>
    <path d="M73 149C76 128 85 114 99 114C113 114 123 128 126 149"/>
    <path d="M83 112V90"/>
    <path d="M118 112V90"/>
    <path d="M74 87C74 72 85 61 100 61C115 61 126 72 126 87"/>
    <path d="M70 90V98"/>
    <path d="M130 90V98"/>
    <path d="M100 60V40L127 32V67"/>
    <circle cx="97" cy="61" r="5"/>
    <circle cx="127" cy="67" r="5"/>

    <path d="M100 114C107 103 115 93 123 85"/>
    <path d="M100 114C94 102 85 92 76 85"/>
    <path d="M123 85C128 79 135 78 141 82"/>
    <path d="M76 85C71 79 64 78 58 82"/>
    <path d="M123 85C125 92 123 99 117 104"/>
    <path d="M76 85C74 92 76 99 82 104"/>
    <path d="M101 98C106 90 114 87 121 89"/>
    <path d="M99 98C94 90 86 87 79 89"/>
  </g>

  <g fill="#1E1A17">
    <circle cx="100" cy="84" r="13"/>
    <path d="M84 104C89 98 111 98 116 104V114H84V104Z"/>
  </g>

  <g stroke="#1E1A17" stroke-width="2.5" stroke-linecap="round" stroke-linejoin="round">
    <path d="M95 86H96"/>
    <path d="M104 86H105"/>
    <path d="M94 94C98 97 102 97 106 94"/>
    <path d="M89 149L86 132"/>
    <path d="M111 149L114 132"/>
  </g>

  <g stroke="#1E1A17" stroke-width="2.1" stroke-linecap="round" opacity="0.55">
    <path d="M34 50C41 45 49 45 56 50"/>
    <path d="M144 50C151 45 159 45 166 50"/>
    <path d="M87 25C92 21 108 21 113 25"/>
    <path d="M36 124C42 119 50 119 56 123"/>
    <path d="M144 123C150 119 158 119 164 124"/>
  </g>
</svg>
