<svg width="200" height="200" viewBox="0 0 200 200" fill="none" xmlns="http://www.w3.org/2000/svg">
  <!-- I am concept 07: the bridge mark pulled off-center for a more editorial composition. -->
  <rect width="200" height="200" rx="40" fill="#F3E7D4"/>

  <g stroke="#171513" stroke-width="3.05" stroke-linecap="round" stroke-linejoin="round">
    <path d="M23 150C34 141 46 137 60 138"/>
    <path d="M119 136C137 134 152 138 167 149"/>
    <path d="M66 120C74 112 82 105 90 99C100 107 111 115 123 124"/>
    <path d="M63 114C72 107 82 103 94 103C107 103 118 109 127 118"/>
    <path d="M62 80C65 65 76 54 92 52C107 50 121 58 128 71"/>
    <path d="M96 51V30L142 19V76"/>
    <circle cx="93" cy="54" r="5.4"/>
    <circle cx="142" cy="76" r="5.4"/>
    <path d="M51 122L76 112"/>
    <path d="M138 123L112 113"/>
    <path d="M49 123C45 132 45 140 49 149"/>
    <path d="M139 124C145 133 146 141 144 149"/>
    <path d="M55 153L60 137"/>
    <path d="M136 139L132 154"/>
    <path d="M107 87C112 84 121 84 126 88"/>
  </g>

  <g fill="#171513">
    <circle cx="64" cy="89" r="10.5"/>
    <circle cx="124" cy="87" r="11.5"/>
    <path d="M50 115C55 107 71 107 76 115V128H50V115Z"/>
    <path d="M109 112C115 103 135 103 141 112V127H109V112Z"/>
  </g>

  <g stroke="#171513" stroke-width="2.4" stroke-linecap="round" stroke-linejoin="round">
    <path d="M59 77C62 70 67 66 73 66C78 66 82 67 86 71"/>
    <path d="M117 73C120 67 125 64 131 64C136 64 141 66 145 71"/>
    <path d="M59 96C63 99 69 100 73 96"/>
    <path d="M119 96C124 100 129 100 134 96"/>
  </g>

  <g stroke="#171513" stroke-width="2" stroke-linecap="round" opacity="0.48">
    <path d="M31 62C37 57 45 56 52 60"/>
    <path d="M150 61C156 56 164 57 170 63"/>
    <path d="M145 113C151 109 159 109 165 113"/>
    <path d="M82 16C88 12 104 11 112 15"/>
    <path d="M18 91L29 88"/>
  </g>
</svg>
