<svg width="200" height="200" viewBox="0 0 200 200" fill="none" xmlns="http://www.w3.org/2000/svg">
  <!-- I am concept 03 refined: two listeners joined by one shared musical bridge. -->
  <rect width="200" height="200" rx="40" fill="#F3E7D4"/>

  <g stroke="#1E1A17" stroke-width="3.1" stroke-linecap="round" stroke-linejoin="round">
    <path d="M34 146C45 135 56 131 69 132"/>
    <path d="M131 132C145 131 156 135 166 146"/>
    <path d="M69 75C73 61 84 52 99 52C114 52 126 61 130 75"/>
    <path d="M69 75C67 90 71 102 81 112"/>
    <path d="M130 75C132 90 128 102 118 112"/>
    <path d="M81 112C88 120 95 126 100 134C105 126 112 120 118 112"/>
    <path d="M83 110C88 106 94 104 100 104C106 104 111 106 116 110"/>
    <path d="M100 51V33L127 25V66"/>
    <circle cx="97" cy="54" r="5"/>
    <circle cx="127" cy="66" r="5"/>
    <path d="M61 120L85 111"/>
    <path d="M139 120L116 111"/>
    <path d="M60 120C56 128 56 135 59 143"/>
    <path d="M139 120C143 128 143 135 140 143"/>
  </g>

  <g fill="#1E1A17">
    <circle cx="74" cy="85" r="10"/>
    <circle cx="126" cy="85" r="10"/>
    <path d="M61 111C66 104 82 104 87 111V123H61V111Z"/>
    <path d="M113 111C118 104 134 104 139 111V123H113V111Z"/>
  </g>

  <g stroke="#1E1A17" stroke-width="2.5" stroke-linecap="round" stroke-linejoin="round">
    <path d="M69 73C72 66 77 63 83 63C88 63 92 65 95 69"/>
    <path d="M105 69C108 65 112 63 118 63C123 63 128 66 131 73"/>
    <path d="M69 93C73 96 78 96 82 93"/>
    <path d="M118 93C122 96 127 96 131 93"/>
    <path d="M65 147L68 132"/>
    <path d="M135 147L132 132"/>
  </g>

  <g stroke="#1E1A17" stroke-width="2.1" stroke-linecap="round" opacity="0.55">
    <path d="M43 57C49 52 57 51 63 55"/>
    <path d="M137 55C143 51 151 52 157 57"/>
    <path d="M86 21C92 17 108 17 114 21"/>
    <path d="M42 123C48 118 55 118 61 122"/>
    <path d="M139 122C145 118 152 118 158 123"/>
  </g>
</svg>
